<svg id="visual" viewBox="0 0 960 200" width="960" height="200" xmlns="http://www.w3.org/2000/svg" xmlns:xlink="http://www.w3.org/1999/xlink" version="1.1"><rect x="0" y="0" width="960" height="200" fill="#212121"></rect><path d="M0 77L8.5 77C17 77 34 77 50.8 79.5C67.7 82 84.3 87 101.2 92.7C118 98.3 135 104.7 151.8 102.5C168.7 100.3 185.3 89.7 202.2 87C219 84.3 236 89.7 252.8 90.2C269.7 90.7 286.3 86.3 303.2 86.7C320 87 337 92 353.8 91C370.7 90 387.3 83 404.2 83.7C421 84.3 438 92.7 454.8 97C471.7 101.3 488.3 101.7 505.2 102.8C522 104 539 106 555.8 103.8C572.7 101.7 589.3 95.3 606.2 95.7C623 96 640 103 656.8 105.8C673.7 108.7 690.3 107.3 707.2 102.2C724 97 741 88 757.8 88.2C774.7 88.3 791.3 97.7 808.2 102.3C825 107 842 107 858.8 104.5C875.7 102 892.3 97 909.2 95.3C926 93.7 943 95.3 951.5 96.2L960 97L960 0L951.5 0C943 0 926 0 909.2 0C892.3 0 875.7 0 858.8 0C842 0 825 0 808.2 0C791.3 0 774.7 0 757.8 0C741 0 724 0 707.2 0C690.3 0 673.7 0 656.8 0C640 0 623 0 606.2 0C589.3 0 572.7 0 555.8 0C539 0 522 0 505.2 0C488.3 0 471.7 0 454.8 0C438 0 421 0 404.2 0C387.3 0 370.7 0 353.8 0C337 0 320 0 303.2 0C286.3 0 269.7 0 252.8 0C236 0 219 0 202.2 0C185.3 0 168.7 0 151.8 0C135 0 118 0 101.2 0C84.3 0 67.7 0 50.8 0C34 0 17 0 8.5 0L0 0Z" fill="#c62368"></path><path d="M0 64L8.5 65.2C17 66.3 34 68.7 50.8 72.3C67.7 76 84.3 81 101.2 79.7C118 78.3 135 70.7 151.8 71C168.7 71.3 185.3 79.7 202.2 81C219 82.3 236 76.7 252.8 74.8C269.7 73 286.3 75 303.2 75.5C320 76 337 75 353.8 76.7C370.7 78.3 387.3 82.7 404.2 82C421 81.3 438 75.7 454.8 75.5C471.7 75.3 488.3 80.7 505.2 84.5C522 88.3 539 90.7 555.8 90.2C572.7 89.7 589.3 86.3 606.2 85.3C623 84.3 640 85.7 656.8 86.2C673.7 86.7 690.3 86.3 707.2 85.8C724 85.3 741 84.7 757.8 80.7C774.7 76.7 791.3 69.3 808.2 68.3C825 67.3 842 72.7 858.8 73.2C875.7 73.7 892.3 69.3 909.2 68.7C926 68 943 71 951.5 72.5L960 74L960 0L951.5 0C943 0 926 0 909.2 0C892.3 0 875.7 0 858.8 0C842 0 825 0 808.2 0C791.3 0 774.7 0 757.8 0C741 0 724 0 707.2 0C690.3 0 673.7 0 656.8 0C640 0 623 0 606.2 0C589.3 0 572.7 0 555.8 0C539 0 522 0 505.2 0C488.3 0 471.7 0 454.8 0C438 0 421 0 404.2 0C387.3 0 370.7 0 353.8 0C337 0 320 0 303.2 0C286.3 0 269.7 0 252.8 0C236 0 219 0 202.2 0C185.3 0 168.7 0 151.8 0C135 0 118 0 101.2 0C84.3 0 67.7 0 50.8 0C34 0 17 0 8.5 0L0 0Z" fill="#d82c5c"></path><path d="M0 55L8.5 54.8C17 54.7 34 54.3 50.8 54C67.7 53.7 84.3 53.3 101.2 55.2C118 57 135 61 151.8 63.8C168.7 66.7 185.3 68.3 202.2 69.3C219 70.3 236 70.7 252.8 67.7C269.7 64.7 286.3 58.3 303.2 58.2C320 58 337 64 353.8 68C370.7 72 387.3 74 404.2 71.5C421 69 438 62 454.8 60.2C471.7 58.3 488.3 61.7 505.2 64.2C522 66.7 539 68.3 555.8 68C572.7 67.7 589.3 65.3 606.2 65.7C623 66 640 69 656.8 71.3C673.7 73.7 690.3 75.3 707.2 73.8C724 72.3 741 67.7 757.8 62.8C774.7 58 791.3 53 808.2 51.2C825 49.3 842 50.7 858.8 53.3C875.7 56 892.3 60 909.2 60.2C926 60.3 943 56.7 951.5 54.8L960 53L960 0L951.5 0C943 0 926 0 909.2 0C892.3 0 875.7 0 858.8 0C842 0 825 0 808.2 0C791.3 0 774.7 0 757.8 0C741 0 724 0 707.2 0C690.3 0 673.7 0 656.8 0C640 0 623 0 606.2 0C589.3 0 572.7 0 555.8 0C539 0 522 0 505.2 0C488.3 0 471.7 0 454.8 0C438 0 421 0 404.2 0C387.3 0 370.7 0 353.8 0C337 0 320 0 303.2 0C286.3 0 269.7 0 252.8 0C236 0 219 0 202.2 0C185.3 0 168.7 0 151.8 0C135 0 118 0 101.2 0C84.3 0 67.7 0 50.8 0C34 0 17 0 8.5 0L0 0Z" fill="#e63a4f"></path><path d="M0 47L8.5 45.7C17 44.3 34 41.7 50.8 41.5C67.7 41.3 84.3 43.7 101.2 47C118 50.3 135 54.7 151.8 56C168.7 57.3 185.3 55.7 202.2 55C219 54.3 236 54.7 252.8 52.8C269.7 51 286.3 47 303.2 46.8C320 46.7 337 50.3 353.8 50.7C370.7 51 387.3 48 404.2 48.7C421 49.3 438 53.7 454.8 51.7C471.7 49.7 488.3 41.3 505.2 41.8C522 42.3 539 51.7 555.8 56.2C572.7 60.7 589.3 60.3 606.2 59.2C623 58 640 56 656.8 53.5C673.7 51 690.3 48 707.2 46.5C724 45 741 45 757.8 46C774.7 47 791.3 49 808.2 49.3C825 49.7 842 48.3 858.8 49.8C875.7 51.3 892.3 55.7 909.2 54.8C926 54 943 48 951.5 45L960 42L960 0L951.5 0C943 0 926 0 909.2 0C892.3 0 875.7 0 858.8 0C842 0 825 0 808.2 0C791.3 0 774.7 0 757.8 0C741 0 724 0 707.2 0C690.3 0 673.7 0 656.8 0C640 0 623 0 606.2 0C589.3 0 572.7 0 555.8 0C539 0 522 0 505.2 0C488.3 0 471.7 0 454.8 0C438 0 421 0 404.2 0C387.3 0 370.7 0 353.8 0C337 0 320 0 303.2 0C286.3 0 269.7 0 252.8 0C236 0 219 0 202.2 0C185.3 0 168.7 0 151.8 0C135 0 118 0 101.2 0C84.3 0 67.7 0 50.8 0C34 0 17 0 8.5 0L0 0Z" fill="#dd3f31"></path><path d="M0 42L8.5 40.7C17 39.3 34 36.7 50.8 33.2C67.7 29.7 84.3 25.3 101.2 23.3C118 21.3 135 21.7 151.8 22C168.7 22.3 185.3 22.7 202.2 25.3C219 28 236 33 252.8 34.2C269.7 35.3 286.3 32.7 303.2 30.8C320 29 337 28 353.8 27.8C370.7 27.7 387.3 28.3 404.2 27.2C421 26 438 23 454.8 23.7C471.7 24.3 488.3 28.7 505.2 31.5C522 34.3 539 35.7 555.8 33.5C572.7 31.3 589.3 25.7 606.2 23.7C623 21.7 640 23.3 656.8 24.2C673.7 25 690.3 25 707.2 25.3C724 25.7 741 26.3 757.8 28.2C774.7 30 791.3 33 808.2 32.7C825 32.3 842 28.7 858.8 29.3C875.7 30 892.3 35 909.2 37.5C926 40 943 40 951.5 40L960 40L960 0L951.5 0C943 0 926 0 909.2 0C892.3 0 875.7 0 858.8 0C842 0 825 0 808.2 0C791.3 0 774.7 0 757.8 0C741 0 724 0 707.2 0C690.3 0 673.7 0 656.8 0C640 0 623 0 606.2 0C589.3 0 572.7 0 555.8 0C539 0 522 0 505.2 0C488.3 0 471.7 0 454.8 0C438 0 421 0 404.2 0C387.3 0 370.7 0 353.8 0C337 0 320 0 303.2 0C286.3 0 269.7 0 252.8 0C236 0 219 0 202.2 0C185.3 0 168.7 0 151.8 0C135 0 118 0 101.2 0C84.3 0 67.7 0 50.8 0C34 0 17 0 8.5 0L0 0Z" fill="#f6612c"></path><path d="M0 28L8.5 28C17 28 34 28 50.8 27.7C67.7 27.3 84.3 26.7 101.2 23.5C118 20.3 135 14.7 151.8 13.5C168.7 12.3 185.3 15.7 202.2 17C219 18.3 236 17.7 252.8 18.5C269.7 19.3 286.3 21.7 303.2 19.7C320 17.7 337 11.3 353.8 11.3C370.7 11.3 387.3 17.7 404.2 19.2C421 20.7 438 17.3 454.8 14.3C471.7 11.3 488.3 8.7 505.2 9.8C522 11 539 16 555.8 19.5C572.7 23 589.3 25 606.2 25.2C623 25.3 640 23.7 656.8 22.8C673.7 22 690.3 22 707.2 19.8C724 17.7 741 13.3 757.8 13.8C774.7 14.3 791.3 19.7 808.2 19.2C825 18.7 842 12.3 858.8 10.3C875.7 8.3 892.3 10.7 909.2 12.7C926 14.7 943 16.3 951.5 17.2L960 18L960 0L951.5 0C943 0 926 0 909.2 0C892.3 0 875.7 0 858.8 0C842 0 825 0 808.2 0C791.3 0 774.7 0 757.8 0C741 0 724 0 707.2 0C690.3 0 673.7 0 656.8 0C640 0 623 0 606.2 0C589.3 0 572.7 0 555.8 0C539 0 522 0 505.2 0C488.3 0 471.7 0 454.8 0C438 0 421 0 404.2 0C387.3 0 370.7 0 353.8 0C337 0 320 0 303.2 0C286.3 0 269.7 0 252.8 0C236 0 219 0 202.2 0C185.3 0 168.7 0 151.8 0C135 0 118 0 101.2 0C84.3 0 67.7 0 50.8 0C34 0 17 0 8.5 0L0 0Z" fill="#f7770f"></path></svg>